<svg width="1440" height="1024" viewBox="0 0 1440 1024" fill="none" xmlns="http://www.w3.org/2000/svg">
<g clip-path="url(#clip0_1_2)">
<rect width="1440" height="1024" fill="white"/>
<line x1="33" y1="374.5" x2="108.333" y2="374.5" stroke="#E7E7E7"/>
<line x1="70.6667" y1="403.734" x2="146" y2="403.734" stroke="#E7E7E7"/>
<line x1="70.6667" y1="468.5" x2="146" y2="468.5" stroke="#E7E7E7"/>
<line x1="33.5" y1="375" x2="33.5" y2="439.766" stroke="#E7E7E7"/>
<line x1="71.1667" y1="404.234" x2="71.1667" y2="469" stroke="#E7E7E7"/>
<line x1="146.5" y1="404.234" x2="146.5" y2="469" stroke="#E7E7E7"/>
<line y1="-0.5" x2="47.6805" y2="-0.5" transform="matrix(0.78998 0.613132 -0.610834 0.791759 33 375)" stroke="#E7E7E7"/>
<line y1="-0.5" x2="47.6805" y2="-0.5" transform="matrix(0.78998 0.613132 -0.610834 0.791759 108.333 375)" stroke="#E7E7E7"/>
<line y1="-0.5" x2="47.6805" y2="-0.5" transform="matrix(0.78998 0.613132 -0.610834 0.791759 33 439.766)" stroke="#E7E7E7"/>
<line x1="172" y1="397.5" x2="242" y2="397.5" stroke="#E7E7E7"/>
<line x1="207" y1="422.069" x2="277" y2="422.069" stroke="#E7E7E7"/>
<line x1="207" y1="476.5" x2="277" y2="476.5" stroke="#E7E7E7"/>
<line x1="172.5" y1="398" x2="172.5" y2="452.431" stroke="#E7E7E7"/>
<line x1="207.5" y1="422.569" x2="207.5" y2="477" stroke="#E7E7E7"/>
<line x1="277.5" y1="422.569" x2="277.5" y2="477" stroke="#E7E7E7"/>
<line y1="-0.5" x2="42.7628" y2="-0.5" transform="matrix(0.818469 0.574551 -0.648966 0.760817 172 398)" stroke="#E7E7E7"/>
<line y1="-0.5" x2="42.7628" y2="-0.5" transform="matrix(0.818469 0.574551 -0.648966 0.760817 242 398)" stroke="#E7E7E7"/>
<line y1="-0.5" x2="42.7628" y2="-0.5" transform="matrix(0.818469 0.574551 -0.648966 0.760817 172 452.431)" stroke="#E7E7E7"/>
<line x1="228" y1="59.5" x2="304.667" y2="59.5" stroke="#E7E7E7"/>
<line x1="266.333" y1="90.6005" x2="343" y2="90.6005" stroke="#E7E7E7"/>
<line x1="266.333" y1="159.5" x2="343" y2="159.5" stroke="#E7E7E7"/>
<line x1="228.5" y1="60" x2="228.5" y2="128.9" stroke="#E7E7E7"/>
<line x1="266.833" y1="91.1005" x2="266.833" y2="160" stroke="#E7E7E7"/>
<line x1="343.5" y1="91.1005" x2="343.5" y2="160" stroke="#E7E7E7"/>
<line y1="-0.5" x2="49.3628" y2="-0.5" transform="matrix(0.776564 0.630039 -0.593822 0.804597 228 60)" stroke="#E7E7E7"/>
<line y1="-0.5" x2="49.3628" y2="-0.5" transform="matrix(0.776564 0.630039 -0.593822 0.804597 304.667 60)" stroke="#E7E7E7"/>
<line y1="-0.5" x2="49.3628" y2="-0.5" transform="matrix(0.776564 0.630039 -0.593822 0.804597 228 128.9)" stroke="#E7E7E7"/>
<line x1="626.333" y1="1.60046" x2="703" y2="1.60046" stroke="#E7E7E7"/>
<line x1="626.333" y1="70.5" x2="703" y2="70.5" stroke="#E7E7E7"/>
<line x1="588.5" y1="-29" x2="588.5" y2="39.8995" stroke="#E7E7E7"/>
<line x1="626.833" y1="2.10046" x2="626.833" y2="71" stroke="#E7E7E7"/>
<line x1="703.5" y1="2.10046" x2="703.5" y2="71" stroke="#E7E7E7"/>
<line y1="-0.5" x2="49.3628" y2="-0.5" transform="matrix(0.776564 0.630039 -0.593822 0.804597 588 -29)" stroke="#E7E7E7"/>
<line y1="-0.5" x2="49.3628" y2="-0.5" transform="matrix(0.776564 0.630039 -0.593822 0.804597 664.667 -29)" stroke="#E7E7E7"/>
<line y1="-0.5" x2="49.3628" y2="-0.5" transform="matrix(0.776564 0.630039 -0.593822 0.804597 588 39.8995)" stroke="#E7E7E7"/>
<line x1="342" y1="9.5" x2="418.667" y2="9.5" stroke="#E7E7E7"/>
<line x1="380.333" y1="40.6005" x2="457" y2="40.6005" stroke="#E7E7E7"/>
<line x1="380.333" y1="109.5" x2="457" y2="109.5" stroke="#E7E7E7"/>
<line x1="342.5" y1="10" x2="342.5" y2="78.8995" stroke="#E7E7E7"/>
<line x1="380.833" y1="41.1005" x2="380.833" y2="110" stroke="#E7E7E7"/>
<line x1="457.5" y1="41.1005" x2="457.5" y2="110" stroke="#E7E7E7"/>
<line y1="-0.5" x2="49.3628" y2="-0.5" transform="matrix(0.776564 0.630039 -0.593822 0.804597 342 10)" stroke="#E7E7E7"/>
<line y1="-0.5" x2="49.3628" y2="-0.5" transform="matrix(0.776564 0.630039 -0.593822 0.804597 418.667 10)" stroke="#E7E7E7"/>
<line y1="-0.5" x2="49.3628" y2="-0.5" transform="matrix(0.776564 0.630039 -0.593822 0.804597 342 78.8995)" stroke="#E7E7E7"/>
<line x1="467" y1="1.5" x2="543.667" y2="1.5" stroke="#E7E7E7"/>
<line x1="505.333" y1="32.6005" x2="582" y2="32.6005" stroke="#E7E7E7"/>
<line x1="505.333" y1="101.5" x2="582" y2="101.5" stroke="#E7E7E7"/>
<line x1="467.5" y1="2" x2="467.5" y2="70.8995" stroke="#E7E7E7"/>
<line x1="505.833" y1="33.1005" x2="505.833" y2="102" stroke="#E7E7E7"/>
<line x1="582.5" y1="33.1005" x2="582.5" y2="102" stroke="#E7E7E7"/>
<line y1="-0.5" x2="49.3628" y2="-0.5" transform="matrix(0.776564 0.630039 -0.593822 0.804597 467 2)" stroke="#E7E7E7"/>
<line y1="-0.5" x2="49.3628" y2="-0.5" transform="matrix(0.776564 0.630039 -0.593822 0.804597 543.667 2)" stroke="#E7E7E7"/>
<line y1="-0.5" x2="49.3628" y2="-0.5" transform="matrix(0.776564 0.630039 -0.593822 0.804597 467 70.8995)" stroke="#E7E7E7"/>
<line x1="134.333" y1="25.6005" x2="211" y2="25.6005" stroke="#E7E7E7"/>
<line x1="134.333" y1="94.5" x2="211" y2="94.5" stroke="#E7E7E7"/>
<line x1="96.5" y1="-5" x2="96.5" y2="63.8995" stroke="#E7E7E7"/>
<line x1="134.833" y1="26.1005" x2="134.833" y2="95" stroke="#E7E7E7"/>
<line x1="211.5" y1="26.1005" x2="211.5" y2="95" stroke="#E7E7E7"/>
<line y1="-0.5" x2="49.3628" y2="-0.5" transform="matrix(0.776564 0.630039 -0.593822 0.804597 96 -5)" stroke="#E7E7E7"/>
<line y1="-0.5" x2="49.3628" y2="-0.5" transform="matrix(0.776564 0.630039 -0.593822 0.804597 172.667 -5)" stroke="#E7E7E7"/>
<line y1="-0.5" x2="49.3628" y2="-0.5" transform="matrix(0.776564 0.630039 -0.593822 0.804597 96 63.8995)" stroke="#E7E7E7"/>
<line x1="-12" y1="51.5" x2="64.6667" y2="51.5" stroke="#E7E7E7"/>
<line x1="26.3333" y1="82.6005" x2="103" y2="82.6005" stroke="#E7E7E7"/>
<line x1="26.3333" y1="151.5" x2="103" y2="151.5" stroke="#E7E7E7"/>
<line x1="26.8333" y1="83.1005" x2="26.8333" y2="152" stroke="#E7E7E7"/>
<line x1="103.5" y1="83.1005" x2="103.5" y2="152" stroke="#E7E7E7"/>
<line y1="-0.5" x2="49.3628" y2="-0.5" transform="matrix(0.776564 0.630039 -0.593822 0.804597 -12 52)" stroke="#E7E7E7"/>
<line y1="-0.5" x2="49.3628" y2="-0.5" transform="matrix(0.776564 0.630039 -0.593822 0.804597 64.6667 52)" stroke="#E7E7E7"/>
<line y1="-0.5" x2="49.3628" y2="-0.5" transform="matrix(0.776564 0.630039 -0.593822 0.804597 -12 120.9)" stroke="#E7E7E7"/>
<line y1="644.5" x2="76.6667" y2="644.5" stroke="#E7E7E7"/>
<line x1="38.3333" y1="675.6" x2="115" y2="675.6" stroke="#E7E7E7"/>
<line x1="38.3333" y1="744.5" x2="115" y2="744.5" stroke="#E7E7E7"/>
<line x1="0.5" y1="645" x2="0.5" y2="713.9" stroke="#E7E7E7"/>
<line x1="38.8333" y1="676.1" x2="38.8333" y2="745" stroke="#E7E7E7"/>
<line x1="115.5" y1="676.1" x2="115.5" y2="745" stroke="#E7E7E7"/>
<line y1="-0.5" x2="49.3628" y2="-0.5" transform="matrix(0.776564 0.630039 -0.593822 0.804597 0 645)" stroke="#E7E7E7"/>
<line y1="-0.5" x2="49.3628" y2="-0.5" transform="matrix(0.776564 0.630039 -0.593822 0.804597 76.6667 645)" stroke="#E7E7E7"/>
<line y1="-0.5" x2="49.3628" y2="-0.5" transform="matrix(0.776564 0.630039 -0.593822 0.804597 0 713.9)" stroke="#E7E7E7"/>
<line x1="110" y1="758.5" x2="186.667" y2="758.5" stroke="#E7E7E7"/>
<line x1="148.333" y1="789.6" x2="225" y2="789.6" stroke="#E7E7E7"/>
<line x1="148.333" y1="858.5" x2="225" y2="858.5" stroke="#E7E7E7"/>
<line x1="110.5" y1="759" x2="110.5" y2="827.9" stroke="#E7E7E7"/>
<line x1="148.833" y1="790.1" x2="148.833" y2="859" stroke="#E7E7E7"/>
<line x1="225.5" y1="790.1" x2="225.5" y2="859" stroke="#E7E7E7"/>
<line y1="-0.5" x2="49.3628" y2="-0.5" transform="matrix(0.776564 0.630039 -0.593822 0.804597 110 759)" stroke="#E7E7E7"/>
<line y1="-0.5" x2="49.3628" y2="-0.5" transform="matrix(0.776564 0.630039 -0.593822 0.804597 186.667 759)" stroke="#E7E7E7"/>
<line y1="-0.5" x2="49.3628" y2="-0.5" transform="matrix(0.776564 0.630039 -0.593822 0.804597 110 827.9)" stroke="#E7E7E7"/>
<line x1="-24" y1="766.5" x2="52.6667" y2="766.5" stroke="#E7E7E7"/>
<line x1="14.3333" y1="797.6" x2="91" y2="797.6" stroke="#E7E7E7"/>
<line x1="14.3333" y1="866.5" x2="91" y2="866.5" stroke="#E7E7E7"/>
<line x1="14.8333" y1="798.1" x2="14.8333" y2="867" stroke="#E7E7E7"/>
<line x1="91.5" y1="798.1" x2="91.5" y2="867" stroke="#E7E7E7"/>
<line y1="-0.5" x2="49.3628" y2="-0.5" transform="matrix(0.776564 0.630039 -0.593822 0.804597 -24 767)" stroke="#E7E7E7"/>
<line y1="-0.5" x2="49.3628" y2="-0.5" transform="matrix(0.776564 0.630039 -0.593822 0.804597 52.6667 767)" stroke="#E7E7E7"/>
<line y1="-0.5" x2="49.3628" y2="-0.5" transform="matrix(0.776564 0.630039 -0.593822 0.804597 -24 835.9)" stroke="#E7E7E7"/>
<line x1="33" y1="887.5" x2="109.667" y2="887.5" stroke="#E7E7E7"/>
<line x1="71.3333" y1="918.6" x2="148" y2="918.6" stroke="#E7E7E7"/>
<line x1="71.3333" y1="987.5" x2="148" y2="987.5" stroke="#E7E7E7"/>
<line x1="33.5" y1="888" x2="33.5" y2="956.9" stroke="#E7E7E7"/>
<line x1="71.8333" y1="919.1" x2="71.8333" y2="988" stroke="#E7E7E7"/>
<line x1="148.5" y1="919.1" x2="148.5" y2="988" stroke="#E7E7E7"/>
<line y1="-0.5" x2="49.3628" y2="-0.5" transform="matrix(0.776564 0.630039 -0.593822 0.804597 33 888)" stroke="#E7E7E7"/>
<line y1="-0.5" x2="49.3628" y2="-0.5" transform="matrix(0.776564 0.630039 -0.593822 0.804597 109.667 888)" stroke="#E7E7E7"/>
<line y1="-0.5" x2="49.3628" y2="-0.5" transform="matrix(0.776564 0.630039 -0.593822 0.804597 33 956.9)" stroke="#E7E7E7"/>
<line x1="168" y1="923.5" x2="244.667" y2="923.5" stroke="#E7E7E7"/>
<line x1="206.333" y1="954.6" x2="283" y2="954.6" stroke="#E7E7E7"/>
<line x1="206.333" y1="1023.5" x2="283" y2="1023.5" stroke="#E7E7E7"/>
<line x1="168.5" y1="924" x2="168.5" y2="992.9" stroke="#E7E7E7"/>
<line x1="206.833" y1="955.1" x2="206.833" y2="1024" stroke="#E7E7E7"/>
<line x1="283.5" y1="955.1" x2="283.5" y2="1024" stroke="#E7E7E7"/>
<line y1="-0.5" x2="49.3628" y2="-0.5" transform="matrix(0.776564 0.630039 -0.593822 0.804597 168 924)" stroke="#E7E7E7"/>
<line y1="-0.5" x2="49.3628" y2="-0.5" transform="matrix(0.776564 0.630039 -0.593822 0.804597 244.667 924)" stroke="#E7E7E7"/>
<line y1="-0.5" x2="49.3628" y2="-0.5" transform="matrix(0.776564 0.630039 -0.593822 0.804597 168 992.9)" stroke="#E7E7E7"/>
<line x1="237" y1="827.5" x2="313.667" y2="827.5" stroke="#E7E7E7"/>
<line x1="275.333" y1="858.6" x2="352" y2="858.6" stroke="#E7E7E7"/>
<line x1="275.333" y1="927.5" x2="352" y2="927.5" stroke="#E7E7E7"/>
<line x1="237.5" y1="828" x2="237.5" y2="896.9" stroke="#E7E7E7"/>
<line x1="275.833" y1="859.1" x2="275.833" y2="928" stroke="#E7E7E7"/>
<line x1="352.5" y1="859.1" x2="352.5" y2="928" stroke="#E7E7E7"/>
<line y1="-0.5" x2="49.3628" y2="-0.5" transform="matrix(0.776564 0.630039 -0.593822 0.804597 237 828)" stroke="#E7E7E7"/>
<line y1="-0.5" x2="49.3628" y2="-0.5" transform="matrix(0.776564 0.630039 -0.593822 0.804597 313.667 828)" stroke="#E7E7E7"/>
<line y1="-0.5" x2="49.3628" y2="-0.5" transform="matrix(0.776564 0.630039 -0.593822 0.804597 237 896.9)" stroke="#E7E7E7"/>
<line x1="371" y1="750.5" x2="447.667" y2="750.5" stroke="#E7E7E7"/>
<line x1="409.333" y1="781.6" x2="486" y2="781.6" stroke="#E7E7E7"/>
<line x1="409.333" y1="850.5" x2="486" y2="850.5" stroke="#E7E7E7"/>
<line x1="371.5" y1="751" x2="371.5" y2="819.9" stroke="#E7E7E7"/>
<line x1="409.833" y1="782.1" x2="409.833" y2="851" stroke="#E7E7E7"/>
<line x1="486.5" y1="782.1" x2="486.5" y2="851" stroke="#E7E7E7"/>
<line y1="-0.5" x2="49.3628" y2="-0.5" transform="matrix(0.776564 0.630039 -0.593822 0.804597 371 751)" stroke="#E7E7E7"/>
<line y1="-0.5" x2="49.3628" y2="-0.5" transform="matrix(0.776564 0.630039 -0.593822 0.804597 447.667 751)" stroke="#E7E7E7"/>
<line y1="-0.5" x2="49.3628" y2="-0.5" transform="matrix(0.776564 0.630039 -0.593822 0.804597 371 819.9)" stroke="#E7E7E7"/>
<line x1="391" y1="861.5" x2="467.667" y2="861.5" stroke="#E7E7E7"/>
<line x1="429.333" y1="892.6" x2="506" y2="892.6" stroke="#E7E7E7"/>
<line x1="429.333" y1="961.5" x2="506" y2="961.5" stroke="#E7E7E7"/>
<line x1="391.5" y1="862" x2="391.5" y2="930.9" stroke="#E7E7E7"/>
<line x1="429.833" y1="893.1" x2="429.833" y2="962" stroke="#E7E7E7"/>
<line x1="506.5" y1="893.1" x2="506.5" y2="962" stroke="#E7E7E7"/>
<line y1="-0.5" x2="49.3628" y2="-0.5" transform="matrix(0.776564 0.630039 -0.593822 0.804597 391 862)" stroke="#E7E7E7"/>
<line y1="-0.5" x2="49.3628" y2="-0.5" transform="matrix(0.776564 0.630039 -0.593822 0.804597 467.667 862)" stroke="#E7E7E7"/>
<line y1="-0.5" x2="49.3628" y2="-0.5" transform="matrix(0.776564 0.630039 -0.593822 0.804597 391 930.9)" stroke="#E7E7E7"/>
<line x1="526" y1="923.5" x2="602.667" y2="923.5" stroke="#E7E7E7"/>
<line x1="564.333" y1="954.6" x2="641" y2="954.6" stroke="#E7E7E7"/>
<line x1="564.333" y1="1023.5" x2="641" y2="1023.5" stroke="#E7E7E7"/>
<line x1="526.5" y1="924" x2="526.5" y2="992.9" stroke="#E7E7E7"/>
<line x1="564.833" y1="955.1" x2="564.833" y2="1024" stroke="#E7E7E7"/>
<line x1="641.5" y1="955.1" x2="641.5" y2="1024" stroke="#E7E7E7"/>
<line y1="-0.5" x2="49.3628" y2="-0.5" transform="matrix(0.776564 0.630039 -0.593822 0.804597 526 924)" stroke="#E7E7E7"/>
<line y1="-0.5" x2="49.3628" y2="-0.5" transform="matrix(0.776564 0.630039 -0.593822 0.804597 602.667 924)" stroke="#E7E7E7"/>
<line y1="-0.5" x2="49.3628" y2="-0.5" transform="matrix(0.776564 0.630039 -0.593822 0.804597 526 992.9)" stroke="#E7E7E7"/>
<line x1="333" y1="954.5" x2="409.667" y2="954.5" stroke="#E7E7E7"/>
<line x1="371.333" y1="985.6" x2="448" y2="985.6" stroke="#E7E7E7"/>
<line x1="333.5" y1="955" x2="333.5" y2="1023.9" stroke="#E7E7E7"/>
<line x1="371.833" y1="986.1" x2="371.833" y2="1055" stroke="#E7E7E7"/>
<line x1="448.5" y1="986.1" x2="448.5" y2="1055" stroke="#E7E7E7"/>
<line y1="-0.5" x2="49.3628" y2="-0.5" transform="matrix(0.776564 0.630039 -0.593822 0.804597 333 955)" stroke="#E7E7E7"/>
<line y1="-0.5" x2="49.3628" y2="-0.5" transform="matrix(0.776564 0.630039 -0.593822 0.804597 409.667 955)" stroke="#E7E7E7"/>
<line y1="-0.5" x2="49.3628" y2="-0.5" transform="matrix(0.776564 0.630039 -0.593822 0.804597 333 1023.9)" stroke="#E7E7E7"/>
<line x1="236" y1="694.5" x2="312.667" y2="694.5" stroke="#E7E7E7"/>
<line x1="274.333" y1="725.6" x2="351" y2="725.6" stroke="#E7E7E7"/>
<line x1="274.333" y1="794.5" x2="351" y2="794.5" stroke="#E7E7E7"/>
<line x1="236.5" y1="695" x2="236.5" y2="763.9" stroke="#E7E7E7"/>
<line x1="274.833" y1="726.1" x2="274.833" y2="795" stroke="#E7E7E7"/>
<line x1="351.5" y1="726.1" x2="351.5" y2="795" stroke="#E7E7E7"/>
<line y1="-0.5" x2="49.3628" y2="-0.5" transform="matrix(0.776564 0.630039 -0.593822 0.804597 236 695)" stroke="#E7E7E7"/>
<line y1="-0.5" x2="49.3628" y2="-0.5" transform="matrix(0.776564 0.630039 -0.593822 0.804597 312.667 695)" stroke="#E7E7E7"/>
<line y1="-0.5" x2="49.3628" y2="-0.5" transform="matrix(0.776564 0.630039 -0.593822 0.804597 236 763.9)" stroke="#E7E7E7"/>
<line x1="116" y1="594.5" x2="192.667" y2="594.5" stroke="#E7E7E7"/>
<line x1="154.333" y1="625.6" x2="231" y2="625.6" stroke="#E7E7E7"/>
<line x1="154.333" y1="694.5" x2="231" y2="694.5" stroke="#E7E7E7"/>
<line x1="116.5" y1="595" x2="116.5" y2="663.9" stroke="#E7E7E7"/>
<line x1="154.833" y1="626.1" x2="154.833" y2="695" stroke="#E7E7E7"/>
<line x1="231.5" y1="626.1" x2="231.5" y2="695" stroke="#E7E7E7"/>
<line y1="-0.5" x2="49.3628" y2="-0.5" transform="matrix(0.776564 0.630039 -0.593822 0.804597 116 595)" stroke="#E7E7E7"/>
<line y1="-0.5" x2="49.3628" y2="-0.5" transform="matrix(0.776564 0.630039 -0.593822 0.804597 192.667 595)" stroke="#E7E7E7"/>
<line y1="-0.5" x2="49.3628" y2="-0.5" transform="matrix(0.776564 0.630039 -0.593822 0.804597 116 663.9)" stroke="#E7E7E7"/>
<line x1="19" y1="469.5" x2="95.6667" y2="469.5" stroke="#E7E7E7"/>
<line x1="57.3333" y1="500.6" x2="134" y2="500.6" stroke="#E7E7E7"/>
<line x1="57.3333" y1="569.5" x2="134" y2="569.5" stroke="#E7E7E7"/>
<line x1="19.5" y1="470" x2="19.5" y2="538.9" stroke="#E7E7E7"/>
<line x1="57.8333" y1="501.1" x2="57.8333" y2="570" stroke="#E7E7E7"/>
<line x1="134.5" y1="501.1" x2="134.5" y2="570" stroke="#E7E7E7"/>
<line y1="-0.5" x2="49.3628" y2="-0.5" transform="matrix(0.776564 0.630039 -0.593822 0.804597 19 470)" stroke="#E7E7E7"/>
<line y1="-0.5" x2="49.3628" y2="-0.5" transform="matrix(0.776564 0.630039 -0.593822 0.804597 95.6667 470)" stroke="#E7E7E7"/>
<line y1="-0.5" x2="49.3628" y2="-0.5" transform="matrix(0.776564 0.630039 -0.593822 0.804597 19 538.9)" stroke="#E7E7E7"/>
<line x1="38" y1="197.5" x2="114.667" y2="197.5" stroke="#E7E7E7"/>
<line x1="76.3333" y1="228.6" x2="153" y2="228.6" stroke="#E7E7E7"/>
<line x1="76.3333" y1="297.5" x2="153" y2="297.5" stroke="#E7E7E7"/>
<line x1="38.5" y1="198" x2="38.5" y2="266.9" stroke="#E7E7E7"/>
<line x1="76.8333" y1="229.1" x2="76.8333" y2="298" stroke="#E7E7E7"/>
<line x1="153.5" y1="229.1" x2="153.5" y2="298" stroke="#E7E7E7"/>
<line y1="-0.5" x2="49.3628" y2="-0.5" transform="matrix(0.776564 0.630039 -0.593822 0.804597 38 198)" stroke="#E7E7E7"/>
<line y1="-0.5" x2="49.3628" y2="-0.5" transform="matrix(0.776564 0.630039 -0.593822 0.804597 114.667 198)" stroke="#E7E7E7"/>
<line y1="-0.5" x2="49.3628" y2="-0.5" transform="matrix(0.776564 0.630039 -0.593822 0.804597 38 266.9)" stroke="#E7E7E7"/>
<line x1="144" y1="136.5" x2="220.667" y2="136.5" stroke="#E7E7E7"/>
<line x1="182.333" y1="167.6" x2="259" y2="167.6" stroke="#E7E7E7"/>
<line x1="182.333" y1="236.5" x2="259" y2="236.5" stroke="#E7E7E7"/>
<line x1="144.5" y1="137" x2="144.5" y2="205.9" stroke="#E7E7E7"/>
<line x1="182.833" y1="168.1" x2="182.833" y2="237" stroke="#E7E7E7"/>
<line x1="259.5" y1="168.1" x2="259.5" y2="237" stroke="#E7E7E7"/>
<line y1="-0.5" x2="49.3628" y2="-0.5" transform="matrix(0.776564 0.630039 -0.593822 0.804597 144 137)" stroke="#E7E7E7"/>
<line y1="-0.5" x2="49.3628" y2="-0.5" transform="matrix(0.776564 0.630039 -0.593822 0.804597 220.667 137)" stroke="#E7E7E7"/>
<line y1="-0.5" x2="49.3628" y2="-0.5" transform="matrix(0.776564 0.630039 -0.593822 0.804597 144 205.9)" stroke="#E7E7E7"/>
<line x1="159" y1="488.5" x2="235.667" y2="488.5" stroke="#E7E7E7"/>
<line x1="197.333" y1="513.691" x2="274" y2="513.691" stroke="#E7E7E7"/>
<line x1="197.333" y1="569.5" x2="274" y2="569.5" stroke="#E7E7E7"/>
<line x1="159.5" y1="489" x2="159.5" y2="544.809" stroke="#E7E7E7"/>
<line x1="197.833" y1="514.191" x2="197.833" y2="570" stroke="#E7E7E7"/>
<line x1="274.5" y1="514.191" x2="274.5" y2="570" stroke="#E7E7E7"/>
<line y1="-0.5" x2="45.8699" y2="-0.5" transform="matrix(0.835696 0.549192 -0.673508 0.73918 159 489)" stroke="#E7E7E7"/>
<line y1="-0.5" x2="45.8699" y2="-0.5" transform="matrix(0.835696 0.549192 -0.673508 0.73918 235.667 489)" stroke="#E7E7E7"/>
<line y1="-0.5" x2="45.8699" y2="-0.5" transform="matrix(0.835696 0.549192 -0.673508 0.73918 159 544.809)" stroke="#E7E7E7"/>
<line x1="-33" y1="287.5" x2="43.6667" y2="287.5" stroke="#E7E7E7"/>
<line x1="5.33331" y1="312.691" x2="82" y2="312.691" stroke="#E7E7E7"/>
<line x1="5.33331" y1="368.5" x2="82" y2="368.5" stroke="#E7E7E7"/>
<line x1="5.83331" y1="313.191" x2="5.83331" y2="369" stroke="#E7E7E7"/>
<line x1="82.5" y1="313.191" x2="82.5" y2="369" stroke="#E7E7E7"/>
<line y1="-0.5" x2="45.8699" y2="-0.5" transform="matrix(0.835696 0.549192 -0.673508 0.73918 -33 288)" stroke="#E7E7E7"/>
<line y1="-0.5" x2="45.8699" y2="-0.5" transform="matrix(0.835696 0.549192 -0.673508 0.73918 43.6667 288)" stroke="#E7E7E7"/>
<line y1="-0.5" x2="45.8699" y2="-0.5" transform="matrix(0.835696 0.549192 -0.673508 0.73918 -33 343.809)" stroke="#E7E7E7"/>
<line x1="163" y1="298.5" x2="237.667" y2="298.5" stroke="#E7E7E7"/>
<line x1="200.333" y1="324.624" x2="275" y2="324.624" stroke="#E7E7E7"/>
<line x1="200.333" y1="382.5" x2="275" y2="382.5" stroke="#E7E7E7"/>
<line x1="163.5" y1="299" x2="163.5" y2="356.876" stroke="#E7E7E7"/>
<line x1="200.833" y1="325.124" x2="200.833" y2="383" stroke="#E7E7E7"/>
<line x1="275.5" y1="325.124" x2="275.5" y2="383" stroke="#E7E7E7"/>
<line y1="-0.5" x2="45.566" y2="-0.5" transform="matrix(0.819324 0.573331 -0.650157 0.7598 163 299)" stroke="#E7E7E7"/>
<line y1="-0.5" x2="45.566" y2="-0.5" transform="matrix(0.819324 0.573331 -0.650157 0.7598 237.667 299)" stroke="#E7E7E7"/>
<line y1="-0.5" x2="45.566" y2="-0.5" transform="matrix(0.819324 0.573331 -0.650157 0.7598 163 356.876)" stroke="#E7E7E7"/>
</g>
<defs>
<clipPath id="clip0_1_2">
<rect width="1440" height="1024" fill="white"/>
</clipPath>
</defs>
</svg>
